<?xml version="1.0" encoding="UTF-8" standalone="no"?>
<svg width="205px" height="61px" viewBox="0 0 205 61" version="1.1" xmlns="http://www.w3.org/2000/svg" xmlns:xlink="http://www.w3.org/1999/xlink" xmlns:sketch="http://www.bohemiancoding.com/sketch/ns">
    <!-- Generator: Sketch 3.1.1 (8761) - http://www.bohemiancoding.com/sketch -->
    <title>SSML di Varese - Indirizzo</title>
    <desc>Created with Sketch.</desc>
    <defs></defs>
    <g id="Page-1" stroke="none" stroke-width="1" fill="none" fill-rule="evenodd" sketch:type="MSPage">
        <g id="SSML-di-Varese---Indirizzo" sketch:type="MSLayerGroup">
            <text id="Varese" sketch:type="MSTextLayer" font-family="Optima" font-size="47.8702121" font-weight="normal" letter-spacing="-1.72627668" fill="#1A1A1A">
                <tspan x="78.9812373" y="44.8371394">Varese</tspan>
            </text>
            <text id="di" sketch:type="MSTextLayer" font-family="Optima" font-size="15.4612268" font-weight="normal" fill="#1A1A1A">
                <tspan x="66.8973005" y="37.4347587">di</tspan>
            </text>
            <g id="SSML-Logo" transform="translate(0.000000, 0.000000)" sketch:type="MSShapeGroup">
                <path d="M-3.55271368e-15,0 L60.3940622,0 L60.3940622,60.6645455 L-3.55271368e-15,60.6645455 L-3.55271368e-15,0 Z" id="Fill-1" fill="#FEFFFF"></path>
                <path d="M59.0158148,1.44585672 C59.0122607,17.8358029 59.0193689,34.229319 59.0087066,50.6192652 C58.1557228,50.6264052 57.302739,50.6299752 56.4462011,50.6406853 C56.407106,43.4042616 56.4390929,36.167838 56.4319847,28.9314144 C53.7415318,28.9314144 51.0510788,28.9349844 48.3641799,28.9314144 C48.3144225,38.4990588 48.3890586,48.2844743 48.3250848,57.8521188 L59.0122607,57.8521188 C58.9944902,58.3626311 59.0051525,58.766043 58.9944902,59.2765554 C39.8059094,59.2908354 20.6208827,59.2765554 1.43230192,59.2836954 C1.43407897,48.9520674 1.5140462,38.6204394 1.43585602,28.2923814 C4.05878112,29.8667587 7.15795549,30.12737 10.1505069,30.0059894 C13.70816,30.0523996 17.3688821,28.413762 19.2099054,25.2578673 C20.1446334,26.8893649 21.4632042,28.4744523 23.3646472,28.9456945 C21.4774206,28.9135643 19.5653196,28.9456945 17.678093,28.9385544 C17.678093,38.5097689 17.678093,48.2773343 17.688751,57.8521188 C19.8709678,57.8521188 22.0674053,57.8378387 24.2531763,57.8521188 L24.2531763,36.0821576 C25.8702913,43.2793111 27.6011332,50.6585353 29.2360188,57.8521188 C31.2476389,57.8521188 33.262813,57.8449787 35.2744331,57.8521188 C36.4934891,52.8469555 37.5739352,47.6418713 38.7823289,42.6331381 C39.2265912,40.4911281 39.6007707,39.2408808 40.246622,36.2142482 C40.246622,37.2923932 40.2537302,38.3705383 40.246622,39.4522533 C40.2181892,45.5177115 40.246622,51.7866606 40.2537259,57.8521188 C42.4750378,57.8806789 44.6999038,57.8449787 46.9212157,57.8521188 C46.931878,48.2773343 46.9247698,38.5133389 46.9247698,28.9349844 C43.381333,28.9314144 39.8378963,28.9385544 36.2980136,28.9207044 C34.9261314,34.6934212 33.6466557,40.4875581 32.2712194,46.2567049 C31.1196913,40.8159996 29.7335927,35.4288446 28.5820646,29.9881393 C31.5284127,30.1630701 34.6880067,29.8060685 37.1225646,27.98536 C41.5900671,24.6259744 42.5958771,17.3467106 39.0346699,12.9841503 C37.0443744,10.7493199 34.0767017,9.81397559 31.3151667,8.93932153 C29.7869042,8.45379927 28.1235858,8.27172843 26.7445954,7.40064438 C25.6357165,6.57597055 25.8951657,4.9087728 26.8263396,4.05196882 C28.1768973,3.24514508 30.0356911,3.35581559 31.2689635,4.33757015 C32.1965833,5.13725387 32.4418161,6.40103974 32.7048195,7.53630501 C35.2531085,7.4470546 37.7871811,7.13289314 40.3354701,7.0614928 C40.1471029,5.09441367 39.649529,3.14161459 38.6472731,1.42800663 C45.4356023,1.4851269 52.2274856,1.43157665 59.0158148,1.44585672 Z" id="Fill-2" fill="#9E2629"></path>
                <path d="M18.3498134,1.44585672 C18.7763053,1.45299675 19.6328432,1.44585672 20.059335,1.45299675 C19.7323579,2.05275954 19.4053808,2.65252232 19.0819578,3.25942514 C18.8438332,2.64538229 18.5950462,2.03490945 18.3498134,1.42443662" id="Fill-3" fill="#9E2629"></path>
                <path d="M10.3601987,3.96271841 C11.6112416,4.71242189 12.0839368,6.17969871 12.3327237,7.53630501 C14.3692225,7.45062461 16.4021671,7.26498375 18.4351118,7.11861307 C18.4742069,10.1923973 20.201499,13.1162409 22.9061684,14.5620976 C25.5006607,16.2257254 28.6353761,16.5363168 31.3933569,17.8001027 C33.1597442,18.503396 33.8776722,20.9702774 32.6692785,22.4768244 C31.3364913,24.2903928 28.3723727,24.2332726 26.8476642,22.6981654 C25.7245689,21.6093104 25.3940377,19.9992329 25.2056705,18.503396 C23.7413817,18.6247765 22.2770929,18.728307 20.8163581,18.8461175 C20.6955188,16.0829247 19.519112,13.2661816 17.2018394,11.6596742 C14.4260881,9.76042534 11.088789,9.00715184 7.90431629,8.10750766 C7.1188604,7.83975642 6.16991595,7.56129513 5.82872244,6.71163118 C5.2316338,5.64776624 5.90691262,4.26973984 6.94826365,3.79492763 C8.03937205,3.34867556 9.30818542,3.4664861 10.3601987,3.96271841 Z" id="Fill-4" fill="#9E2629"></path>
                <path d="M5.82161425,16.0579346 C7.64486706,16.7255277 9.62094613,16.9825689 11.3198055,17.9678935 C12.8480681,18.7675772 13.4025075,20.9952675 12.3504942,22.391144 C10.9501792,24.4010634 7.61998837,24.2439826 6.16991595,22.3697239 C5.238742,21.309429 5.04326655,19.8635723 4.82646651,18.5248161 C3.68560072,18.5997864 2.57316771,18.6783268 1.43585602,18.721167 L1.43585602,13.6517434 C1.5176003,13.787404 4.42129922,15.6009725 5.82161425,16.0579346 Z" id="Fill-5" fill="#9E2629"></path>
            </g>
        </g>
    </g>
</svg>